<svg width="32" height="48" viewBox="0 0 32 48" fill="none" xmlns="http://www.w3.org/2000/svg">
<path d="M30.7706 21.4378C30.2403 20.9668 29.7004 20.5336 29.6811 19.7895C29.2762 20.7973 29.5172 21.6827 30.3657 22.3325C30.7128 22.6057 30.9056 22.9448 30.8477 23.3403C30.8188 23.5476 30.6646 23.8207 30.4814 23.9149C30.1825 24.0562 30.0379 23.783 29.874 23.5852C29.4305 23.0578 28.9966 22.5209 28.4952 22.05C28.2542 21.8239 27.8685 21.7109 27.5407 21.5508C28.4181 22.7281 28.7556 23.6135 28.6591 24.8473C28.6399 25.1581 28.5531 25.5161 28.3699 25.7609C27.7432 26.5804 27.0201 27.3433 26.7501 28.3417C26.6152 27.6729 26.8755 27.0796 27.1165 26.4862C27.8878 24.6213 27.5986 22.9448 26.056 21.4849C25.4389 20.9009 24.658 20.4394 24.5133 19.5446C24.388 20.2228 24.6676 20.7785 25.034 21.3153C25.3521 21.7674 25.6992 22.2101 26.0174 22.6622C26.4223 23.2367 26.7598 23.8395 26.7984 24.5459C26.8273 25.0922 26.7309 25.6008 26.3066 26.0623C26.2584 25.9776 26.2102 25.9305 26.1909 25.8834C25.9403 25.0357 25.4486 24.301 24.7929 23.6606C24.3205 23.1991 23.9445 22.6905 23.8866 22.0311C23.8577 21.6732 23.5781 21.579 23.2021 21.7297C23.0093 21.8051 22.8261 21.8993 22.6429 21.9841C22.5947 21.9464 22.5561 21.9087 22.5079 21.8804C22.7104 21.6167 22.9032 21.3436 23.125 21.0987C23.26 20.9574 23.4624 20.8538 23.6263 20.7408C23.4142 20.6654 23.2021 20.5901 22.9707 20.5147C23.4046 20.0155 23.8674 19.5164 24.2916 18.9795C24.9183 18.1977 24.8797 17.7456 24.1663 16.9545C23.9156 17.1428 23.6938 17.3124 23.4239 17.5102C23.5299 17.237 23.607 17.0298 23.6842 16.832C22.1126 17.3689 20.8303 18.3108 19.1238 18.3013V18.452C19.7409 18.5839 20.3675 18.7252 20.9653 18.8476C20.5025 19.2338 19.8565 19.1208 19.2106 19.0266C19.7698 19.62 20.5314 19.554 21.3799 19.5729C20.6664 20.0438 20.0012 20.1286 19.2781 19.959C18.2464 19.7141 17.4366 19.1302 16.6267 18.5462C16.4339 18.405 16.2217 18.2731 16 18.1695C15.7782 18.2731 15.5661 18.4144 15.3733 18.5462C14.5634 19.1396 13.7535 19.7141 12.7219 19.959C11.9988 20.1286 11.3336 20.0438 10.6201 19.5729C11.4685 19.554 12.2302 19.62 12.7894 19.0266C12.1434 19.1208 11.4975 19.2338 11.0347 18.8476C11.6324 18.7158 12.2591 18.5839 12.8762 18.452V18.3013C11.1696 18.3108 9.8777 17.3689 8.3158 16.832C8.39293 17.0392 8.47006 17.2465 8.57612 17.5102C8.3158 17.3124 8.0844 17.1428 7.83373 16.9545C7.12027 17.7456 7.0817 18.1977 7.70839 18.9795C8.13261 19.5164 8.60504 20.0155 9.02926 20.5147C8.80751 20.5901 8.5954 20.6654 8.37365 20.7408C8.54719 20.8632 8.74002 20.9574 8.875 21.0987C9.10639 21.3436 9.28958 21.6167 9.49205 21.8804C9.44384 21.9181 9.40527 21.9558 9.35707 21.9841C9.17388 21.8993 8.99069 21.8051 8.79787 21.7297C8.41221 21.579 8.14225 21.6732 8.11333 22.0311C8.05548 22.6905 7.67947 23.1991 7.20704 23.6606C6.55142 24.3105 6.05971 25.0357 5.80903 25.8834C5.78975 25.9305 5.75119 25.9776 5.69334 26.0623C5.26912 25.6008 5.1727 25.0828 5.20163 24.5459C5.23055 23.8395 5.57764 23.2462 5.98258 22.6622C6.30075 22.2101 6.64784 21.7768 6.966 21.3153C7.33238 20.7785 7.61198 20.2228 7.48664 19.5446C7.35166 20.4394 6.56107 20.9009 5.94402 21.4849C4.39175 22.9448 4.11215 24.6307 4.88346 26.4862C5.1245 27.0796 5.38481 27.6729 5.24984 28.3417C4.97023 27.3433 4.25677 26.5804 3.63008 25.7609C3.43725 25.5161 3.36012 25.1581 3.34084 24.8473C3.24443 23.6229 3.58187 22.7375 4.45924 21.5508C4.14107 21.7109 3.74578 21.8145 3.50475 22.05C3.00339 22.5303 2.56953 23.0578 2.12602 23.5852C1.96212 23.783 1.8175 24.0656 1.51861 23.9149C1.32579 23.8207 1.18117 23.5476 1.15224 23.3403C1.09439 22.9448 1.28722 22.6057 1.63431 22.3325C2.48276 21.6827 2.72379 20.7973 2.31885 19.7895C2.28993 20.5336 1.75965 20.9668 1.22937 21.4378C0.949772 21.6827 0.747304 22.0782 0.670173 22.4361C0.361648 23.8866 0.708739 25.2052 1.82714 26.3355C1.89463 26.4014 1.9814 26.4579 2.11638 26.5615C2.0971 25.8834 1.88499 25.2335 2.53096 24.659C2.28028 25.7515 2.63702 26.5992 3.42761 27.3244C3.9386 27.7954 3.95789 28.3982 3.84219 28.9915C3.80363 29.1988 3.60116 29.4248 3.39869 29.5567C3.25407 29.6509 2.97446 29.6697 2.80092 29.6038C2.68522 29.5661 2.6563 29.3212 2.54061 29.0763C2.39599 29.1705 2.10674 29.2741 2.06818 29.4248C2.00069 29.6697 2.02961 29.9899 2.16459 30.2066C2.24172 30.329 2.59845 30.3855 2.8202 30.3573C3.06124 30.3384 3.28299 30.1877 3.50475 30.103C4.4014 29.7639 5.16306 30.2254 5.06665 31.0919C5.01844 31.5158 4.81597 31.9302 4.64243 32.3352C4.21821 33.3241 4.14107 33.6538 4.29533 34.2754C4.31462 33.164 5.67406 32.872 6.00186 31.9396C6.05007 31.9584 6.09828 31.9679 6.14648 31.9867C6.03079 32.3163 6.0115 32.7025 5.78975 32.9662C4.41103 34.6051 4.48816 36.47 4.65207 38.3537C4.69063 38.7399 4.77741 39.126 4.83526 39.5311C4.90275 38.9094 4.92203 38.2972 5.04737 37.6944C5.27876 36.5736 5.93438 35.6411 6.73461 34.7652C7.73732 33.6538 8.05548 32.3352 7.89158 30.913C7.79517 30.1312 7.74696 29.3495 7.73731 28.5677C7.73731 28.304 7.91086 28.0403 8.09405 27.7765C8.10369 28.7843 8.13261 29.7639 8.9232 30.6869C8.95213 29.745 9.16424 28.935 9.62703 28.0779C9.6656 28.3888 9.63667 28.6054 9.72344 28.7843C9.79093 28.9256 10.003 29.0857 10.1573 29.0857C10.2923 29.0857 10.4948 28.8974 10.5526 28.7561C10.6876 28.4264 10.7358 28.0685 10.8418 27.7389C11.054 27.089 11.4396 26.5333 12.0374 26.1094C12.1049 26.0623 12.1916 26.0341 12.4134 25.9305C12.2495 26.2884 12.1241 26.5333 11.9795 26.8629C12.4134 26.684 12.7894 26.5427 13.2329 26.3637C12.9629 27.0419 12.6544 27.5976 11.8638 27.8142C11.9024 27.8613 11.9313 27.899 11.9699 27.9461C12.2591 27.7954 12.5773 27.6729 12.8473 27.5034C13.2618 27.2397 13.6571 26.9289 14.0621 26.6463C14.6213 26.2507 15.1515 26.3166 15.6529 26.7405C15.7686 26.8347 15.8843 26.9006 16.0096 26.9383C16.135 26.9006 16.2603 26.8347 16.3664 26.7405C16.8677 26.3072 17.398 26.2507 17.9572 26.6463C18.3621 26.9289 18.7574 27.2397 19.172 27.5034C19.442 27.6824 19.7601 27.8048 20.0494 27.9461C20.0879 27.899 20.1169 27.8613 20.1554 27.8142C19.3648 27.5976 19.0563 27.0419 18.7864 26.3637C19.2299 26.5427 19.6059 26.6934 20.0397 26.8629C19.8855 26.5333 19.7698 26.2884 19.6059 25.9305C19.8276 26.0341 19.9144 26.0529 19.9819 26.1094C20.5797 26.5333 20.9653 27.089 21.1774 27.7389C21.2835 28.0779 21.3317 28.4358 21.4667 28.7561C21.5245 28.8974 21.727 29.0857 21.862 29.0857C22.0066 29.0857 22.2187 28.9256 22.2958 28.7843C22.3826 28.6054 22.3537 28.3888 22.3922 28.0779C22.855 28.9256 23.0671 29.7356 23.0961 30.6869C23.8866 29.7639 23.9156 28.7749 23.9252 27.7765C24.1084 28.0403 24.2819 28.304 24.2819 28.5677C24.2723 29.3495 24.2145 30.1406 24.1277 30.913C23.9638 32.3352 24.2723 33.6538 25.2847 34.7652C26.0849 35.6506 26.7309 36.5736 26.9719 37.6944C27.0972 38.2878 27.1165 38.9094 27.184 39.5311C27.2515 39.1355 27.3383 38.7493 27.3672 38.3537C27.5311 36.47 27.6179 34.5957 26.2295 32.9662C26.0078 32.7119 25.9885 32.3163 25.8728 31.9867C25.921 31.9679 25.9692 31.9584 26.0174 31.9396C26.3356 32.872 27.7046 33.1546 27.7239 34.2754C27.8782 33.6632 27.8011 33.3241 27.3768 32.3352C27.2033 31.9302 27.0008 31.5158 26.9526 31.0919C26.8466 30.216 27.6179 29.7545 28.5145 30.103C28.7459 30.1877 28.9677 30.3384 29.1991 30.3573C29.4208 30.3761 29.7775 30.329 29.8547 30.2066C29.9897 29.9899 30.0089 29.6697 29.9511 29.4248C29.9125 29.2741 29.6233 29.1705 29.4787 29.0763C29.363 29.3212 29.3437 29.5661 29.2183 29.6038C29.0448 29.6697 28.7652 29.6509 28.6206 29.5567C28.4181 29.4248 28.2156 29.1988 28.1771 28.9915C28.0614 28.3982 28.071 27.7954 28.5916 27.3244C29.3822 26.5992 29.7486 25.7515 29.4883 24.659C30.1246 25.2335 29.9222 25.8834 29.9029 26.5615C30.0379 26.4579 30.1246 26.4108 30.1921 26.3355C31.3009 25.2147 31.648 23.896 31.3491 22.4361C31.2527 22.0782 31.0502 21.6827 30.7706 21.4378ZM21.2835 25.7515C20.8689 25.403 20.5122 25.0074 20.0976 24.6684C19.6444 24.2916 19.0949 24.1033 18.4489 24.1409C18.4007 24.6024 18.0632 24.8379 17.6776 25.0451C17.128 25.3371 16.5978 25.6762 16.0482 25.9682C16.0289 25.9776 16.0193 25.987 16 25.9964C15.9807 25.987 15.9711 25.9776 15.9518 25.9682C15.4022 25.6762 14.8719 25.3371 14.3224 25.0451C13.9271 24.8379 13.5896 24.6024 13.5511 24.1409C12.8955 24.1033 12.3555 24.2916 11.9024 24.6684C11.4878 25.0074 11.1311 25.4125 10.7165 25.7515C10.4562 25.9682 10.1477 26.1189 9.77165 26.3637C10.273 25.3371 10.6876 24.4046 11.1889 23.5099C11.3432 23.2462 11.6999 22.9918 12.0277 22.8977C12.5773 22.747 13.0015 22.4644 13.3968 22.1159C13.6378 21.8993 13.9078 21.6921 14.2067 21.5602C14.7563 21.3153 15.2383 21.5696 15.3733 22.1818C14.8719 21.9464 14.3899 21.9087 13.9946 22.2949C13.5318 22.7375 13.6282 23.2932 13.715 23.8207C13.7343 23.9055 13.9849 24.0185 14.1199 24.0091C14.5634 23.9714 14.9202 24.0938 15.248 24.3293C15.4794 24.4988 15.7397 24.5459 16 24.5083C16.2603 24.5459 16.5206 24.4988 16.752 24.3293C17.0895 24.0938 17.4462 23.9714 17.8801 24.0091C18.015 24.0185 18.2657 23.9055 18.285 23.8207C18.3718 23.2932 18.4682 22.7375 18.0054 22.2949C17.6101 21.9181 17.128 21.9558 16.6267 22.1818C16.7617 21.579 17.2437 21.3153 17.7933 21.5602C18.0922 21.6921 18.3621 21.9087 18.6032 22.1159C18.9985 22.4644 19.413 22.747 19.9722 22.8977C20.3001 22.9918 20.6568 23.2367 20.811 23.5099C21.3124 24.4046 21.727 25.3371 22.2283 26.3637C21.862 26.1283 21.5438 25.9682 21.2835 25.7515Z" fill="white"/>
<path d="M20.6085 32.5619C20.5989 32.5525 20.5603 32.5525 20.5507 32.5525C20.5121 33.2118 20.5121 33.8711 20.4061 34.521C20.3096 35.1614 20.0975 35.7831 19.9336 36.4047C19.8565 35.3687 19.8758 34.3326 19.6829 33.3248C19.4419 32.1286 19.037 30.9607 17.9861 30.0942C17.8511 29.9812 17.7547 29.9152 17.6679 29.887C17.128 29.5856 16.5302 29.5102 15.9903 29.5291C15.4504 29.5102 14.8526 29.5856 14.3127 29.887C14.2259 29.9152 14.1199 29.9812 13.9945 30.0942C12.9533 30.9701 12.5387 32.138 12.2976 33.3248C12.0952 34.3232 12.1241 35.3592 12.047 36.4047C11.8927 35.7831 11.6806 35.1614 11.5745 34.521C11.4685 33.8711 11.4781 33.2118 11.4299 32.5525C11.4203 32.5525 11.3817 32.5431 11.3721 32.5619C10.8996 33.4567 10.0705 34.0971 9.34737 34.8224C7.50587 36.6684 6.33926 38.7782 6.58994 41.3495C6.64779 41.9052 6.85025 42.4609 7.06236 43.0072C7.00451 41.8205 7.24555 40.7279 8.03615 39.7578C7.84332 40.7467 7.94937 41.6792 8.62427 42.4986C8.80746 42.7246 9.00992 42.9507 9.25096 43.1202C10.4176 43.9302 11.2853 44.8721 11.16 46.3414C11.6709 45.7669 11.7095 44.9663 11.2467 44.2976C10.9864 43.9208 10.6297 43.5817 10.3404 43.2238C10.0319 42.8377 9.69446 42.4609 9.45343 42.0371C9.15454 41.5096 9.22203 40.9916 9.56912 40.4076C9.7041 40.6902 9.82944 40.9539 9.95478 41.2177C9.99335 41.2082 10.0319 41.1988 10.0705 41.1894C9.85837 40.4171 10.138 39.7483 10.5043 39.0796C10.6682 38.7876 10.6875 38.4297 10.7743 38.0907C11.0925 38.3167 11.0635 38.6746 10.9768 39.0419C10.89 39.4093 10.755 39.786 10.7261 40.1533C10.6393 41.2553 11.0635 42.1878 11.8734 43.0166C12.8954 44.0527 12.7894 45.9553 11.6902 46.8689C11.3624 47.142 11.0057 47.4057 10.514 47.2456C10.0319 47.0949 10.0416 46.7087 10.0801 46.2943C9.63661 46.6051 9.59805 46.9725 9.71375 47.3492C9.82944 47.7354 10.1476 47.9991 10.6008 47.9991C10.9382 48.0085 11.3046 47.9614 11.5938 47.8296C12.9243 47.2644 13.5896 46.2849 13.6378 44.9757C13.6378 44.9098 13.6474 44.8344 13.6571 44.7685C13.6571 44.7591 13.6764 44.7497 13.686 44.7402C14.3513 45.1358 14.6405 45.9458 14.6983 47.5941C15.4986 46.2096 15.5661 44.015 13.3871 42.8659C11.7288 41.99 11.1214 40.7467 11.4396 39.0608C11.5745 38.3544 11.5649 37.6291 11.1889 36.951C11.2371 36.9322 11.2853 36.9039 11.3335 36.8851C11.507 37.1488 11.7674 37.3937 11.8445 37.6762C11.9409 38.0341 11.8541 38.4297 11.8927 38.8065C11.9506 39.4187 11.9891 40.0403 12.1434 40.6337C12.2591 41.0858 12.6737 41.3872 13.1943 41.4531C14.467 41.6227 15.0936 42.3385 15.3732 43.3934C15.3925 43.4593 15.4215 43.5252 15.46 43.6006C15.8457 43.0543 15.6432 41.7074 15.1322 41.067C14.8912 40.7656 14.6405 40.483 14.4091 40.1816C13.7824 39.3528 13.8692 38.6464 14.708 37.9776C14.9297 37.7987 15.1708 37.648 15.4311 37.5067C15.6336 37.3937 15.8168 37.2806 15.9903 37.1582C16.1638 37.2806 16.3567 37.3937 16.5495 37.5067C16.8002 37.648 17.0508 37.8081 17.2726 37.9776C18.1114 38.6464 18.1982 39.3528 17.5715 40.1816C17.3401 40.483 17.0894 40.775 16.8484 41.067C16.3374 41.7074 16.1349 43.0543 16.5206 43.6006C16.5495 43.5252 16.5881 43.4593 16.6073 43.3934C16.8773 42.3385 17.504 41.6227 18.7863 41.4531C19.2973 41.3872 19.7215 41.0858 19.8372 40.6337C19.9915 40.0403 20.03 39.4187 20.0879 38.8065C20.1265 38.4297 20.0397 38.0341 20.1361 37.6762C20.2132 37.3937 20.4639 37.1488 20.6471 36.8851C20.6953 36.9039 20.7435 36.9322 20.7917 36.951C20.4253 37.6291 20.4157 38.3638 20.541 39.0608C20.8592 40.7467 20.2518 41.99 18.5935 42.8659C16.4145 44.015 16.4724 46.2096 17.2822 47.5941C17.3304 45.9552 17.6197 45.1358 18.2946 44.7402C18.3042 44.7497 18.3235 44.7591 18.3235 44.7685C18.3331 44.8344 18.3428 44.9098 18.3428 44.9757C18.4006 46.2943 19.0563 47.2644 20.3868 47.8296C20.6857 47.9614 21.052 48.0085 21.3798 47.9991C21.8233 47.9897 22.1511 47.7354 22.2668 47.3492C22.3825 46.9725 22.344 46.6051 21.9005 46.2943C21.939 46.7182 21.9487 47.0949 21.4666 47.2456C20.9749 47.4057 20.6182 47.142 20.2904 46.8689C19.1816 45.9553 19.0852 44.0527 20.1072 43.0166C20.917 42.1972 21.3413 41.2553 21.2545 40.1533C21.2256 39.7766 21.0906 39.4093 21.0038 39.0419C20.917 38.6652 20.8978 38.3167 21.2063 38.0907C21.2931 38.4297 21.322 38.7876 21.4762 39.0796C21.8426 39.7483 22.1319 40.4265 21.9101 41.1894C21.9487 41.1988 21.9872 41.2082 22.0258 41.2177C22.1511 40.9539 22.2765 40.6902 22.4115 40.4076C22.7489 40.9916 22.826 41.5096 22.5272 42.0371C22.2861 42.4609 21.9487 42.8377 21.6402 43.2238C21.3509 43.5912 20.9942 43.9208 20.7339 44.2976C20.2711 44.9663 20.3096 45.7669 20.8206 46.3414C20.6953 44.8721 21.563 43.9302 22.7296 43.1202C22.9707 42.9507 23.1731 42.7246 23.3563 42.4986C24.0312 41.6698 24.1373 40.7373 23.9444 39.7578C24.7254 40.7279 24.9664 41.8205 24.9182 43.0072C25.1303 42.4609 25.3328 41.9146 25.3907 41.3495C25.6413 38.7876 24.4651 36.6779 22.6332 34.8224C21.9101 34.0971 21.0809 33.4661 20.6085 32.5619Z" fill="white"/>
<path d="M28.3507 8.04469C27.9747 7.81864 27.5986 7.58318 27.1841 7.43248C26.7695 7.28178 26.3163 7.20643 25.8632 7.11224C25.0148 6.94271 24.3977 6.50003 23.9446 5.85956C23.7421 5.577 23.5396 5.28502 23.3179 5.01188C22.7201 4.27722 21.8909 4.03233 20.9172 4.13594C20.5894 4.17361 20.2519 4.25838 20.1073 4.61629C20.4544 4.63513 20.7629 4.65397 21.0811 4.6728C21.0907 4.7199 21.1003 4.76699 21.11 4.8235C20.9268 4.89885 20.7436 4.99304 20.5508 5.04013C20.2326 5.11548 19.8855 5.11548 19.5866 5.21909C19.2106 5.35095 18.8539 5.52048 18.5357 5.73711C18.4104 5.82188 18.4393 6.07619 18.3911 6.25514C18.6321 6.29282 18.8828 6.387 19.1142 6.35875C19.2492 6.33991 19.336 6.10444 19.471 6.00084C19.6541 5.86898 19.8566 5.69002 20.0591 5.6806C20.6761 5.64293 21.2932 5.66176 21.9102 5.66176L21.9584 5.70886C21.6113 5.8313 21.2643 5.96316 20.9075 6.06677C20.358 6.2363 20.0976 6.55654 20.1362 7.07457C20.7629 6.46235 21.4956 6.36817 22.3344 6.62247C22.5851 6.69782 22.9419 6.75433 23.1443 6.65073C23.4721 6.48119 23.6842 6.57538 23.906 6.73549C24.1277 6.89561 24.3495 7.06515 24.5038 7.27236C24.8123 7.70562 25.2461 7.88457 25.7957 7.91283C26.432 7.9505 26.9623 8.21423 27.4058 8.61923C27.5504 8.75109 27.6758 8.89237 27.83 9.01481C28.1386 9.24086 28.4374 9.1561 28.5435 8.8076C28.6688 8.51562 28.6592 8.23306 28.3507 8.04469Z" fill="white"/>
<path d="M23.5204 4.45592C24.7159 5.20942 25.7668 5.08697 26.8563 4.21104C27.0202 4.07918 27.3191 4.08859 27.5601 4.0415C27.5505 4.25813 27.6276 4.51244 27.5216 4.69139C27.2709 5.12465 26.9431 5.52023 26.6538 5.94407C26.596 6.03826 26.6056 6.17012 26.5767 6.28315C26.702 6.25489 26.8659 6.25489 26.9334 6.18896C27.4348 5.61442 27.9458 5.0493 28.3796 4.43708C28.6207 4.09801 28.611 3.67417 28.3025 3.32568C27.994 2.97719 27.5698 2.86417 27.0877 2.9301C26.5092 3.00545 26.085 3.29743 25.709 3.67417C25.1401 4.23929 23.7614 4.1922 23.2311 3.59882C22.9612 3.29743 22.8937 2.97719 23.1154 2.61928C23.2408 2.42149 23.3468 2.21428 23.424 2.00707C23.6457 1.34776 23.3372 0.933337 22.5755 0.848569C22.402 0.829731 22.2284 0.829731 22.0645 0.820312V0.829732H21.8717C20.8111 0.867406 20.628 1.13113 21.0907 1.97881C21.6596 2.98661 22.4887 3.80603 23.5204 4.45592Z" fill="white"/>
<path d="M26.4416 10.3519C26.6344 10.0129 26.4994 9.63612 26.0849 9.42891C25.8535 9.31589 25.5739 9.2688 25.3521 9.14635C24.9375 8.91089 24.4748 8.68484 24.1662 8.3646C23.7324 7.91251 23.2503 7.6582 22.5947 7.6582H21.3317C21.322 7.69588 21.3124 7.73355 21.3027 7.77123C22.1319 7.94076 22.6525 8.43995 23.1153 9.03333C23.6842 9.76799 24.5037 10.2483 25.3618 10.6628C25.7763 10.8606 26.2391 10.7004 26.4416 10.3519Z" fill="white"/>
<path d="M25.3521 11.332C25.3232 11.332 25.2846 11.3602 25.1689 11.4261C25.3714 11.5015 25.4968 11.5768 25.6317 11.5957C26.4995 11.7275 27.3383 11.671 28.1578 11.3225C28.4663 11.1907 28.852 11.1153 29.1894 11.1342C30.0764 11.1907 30.5681 11.7087 30.7706 12.6694C30.8574 13.065 30.9731 13.4512 31.0695 13.8467C31.1177 13.8373 31.1755 13.8279 31.2237 13.8185C31.2912 12.66 31.0309 11.5674 30.3078 10.5879C29.9511 10.0981 29.4304 9.89089 28.7748 9.96624C28.1674 10.0322 27.6757 10.2959 27.2804 10.6915C26.7598 11.2001 26.1427 11.4544 25.3521 11.332Z" fill="white"/>
<path d="M30.3463 14.2514C30.0377 13.9123 29.7678 13.5544 29.4785 13.1965C29.1989 12.848 28.8519 12.6691 28.3505 12.7256C28.0902 12.7538 27.8202 12.7067 27.5599 12.6785C26.9911 12.6031 26.4222 12.5184 25.8534 12.4336C25.8341 12.4713 25.8245 12.5089 25.8052 12.5466C26.5379 13.319 27.261 14.0913 28.5819 13.95C28.9868 13.9123 29.305 14.0819 29.5364 14.3927C29.7389 14.6564 29.9317 14.939 30.1727 15.1744C30.5295 15.5135 30.9826 15.4287 31.1947 15.0897C30.9055 14.7977 30.5969 14.5434 30.3463 14.2514Z" fill="white"/>
<path d="M17.6197 1.89413C18.256 2.40274 18.5356 2.32739 18.9213 1.63983C19.0563 1.38552 19.3262 1.18773 19.4901 0.942845C19.6155 0.754471 19.789 0.519004 19.7505 0.33063C19.683 0.0292326 19.3552 0.000976562 19.0274 0.000976562C18.2946 0.0198139 17.7451 0.349467 17.2726 0.792145C16.5592 1.47029 16.4627 2.47809 17.0798 3.27868C17.1087 2.71356 16.9545 2.15785 17.6197 1.89413Z" fill="white"/>
<path d="M30.6646 16.5219C29.7969 16.2017 28.9099 15.9097 28.3507 15.1279C28.2832 15.3257 28.235 15.5141 28.2639 15.6931C28.4375 16.682 29.2281 17.1624 30.1633 17.5014C31.2142 17.8876 31.3395 18.0383 31.3492 19.0838C31.7734 18.8577 31.9469 18.5563 31.9855 18.189C32.0819 17.3978 31.7059 16.9081 30.6646 16.5219Z" fill="white"/>
<path d="M16.3277 4.03266C16.2506 4.00441 16.1734 3.96673 16.106 3.93848V4.14569C16.2217 4.15511 16.3374 4.16452 16.4531 4.16452C16.3856 4.08917 16.3663 4.0515 16.3277 4.03266Z" fill="white"/>
<path d="M25.4968 17.2559C25.4871 17.416 25.4968 17.5573 25.545 17.6797C25.8053 18.4991 26.3259 19.1773 27.078 19.7047C27.7529 20.1757 28.5049 20.5618 28.7845 21.4472C29.1605 20.3829 28.7074 19.2903 27.7529 18.7534C26.9526 18.3108 26.0367 18.0282 25.4968 17.2559Z" fill="white"/>
<path d="M17.3594 4.918C17.4172 4.86148 17.4654 4.82381 17.4944 4.77672C17.9475 4.08915 18.4778 3.61822 19.4998 3.63705C20.3289 3.64647 20.8496 2.87414 20.676 2.17716C19.0466 2.15832 17.3979 2.79879 17.3594 4.918Z" fill="white"/>
<path d="M22.1607 16.691C22.4307 16.6816 22.7199 16.5968 22.9706 16.5026C23.2791 16.3802 23.4623 16.1636 23.3659 15.8057C22.5946 16.0976 21.8619 16.5121 20.8688 16.1824C21.1387 16.06 21.3123 15.9846 21.5823 15.8622C20.4639 15.7397 19.5576 16.0788 19.2876 16.7004C20.2614 16.7004 21.2159 16.7193 22.1607 16.691Z" fill="white"/>
<path d="M19.5095 17.4828C19.7216 17.8407 19.9723 17.9631 20.3098 17.8689C20.6472 17.7747 20.7918 17.5487 20.6665 17.2002C20.4255 17.6805 20.0205 17.6617 19.5095 17.4828Z" fill="white"/>
<path d="M17.4365 7.69683C17.7546 6.39705 17.4075 5.63414 16.2313 4.99366C16.1831 4.96541 16.1445 4.94657 16.106 4.92773V6.28402C16.6555 6.60426 17.0894 7.08461 17.4365 7.69683Z" fill="white"/>
<path d="M10.6875 10.5686C10.4369 10.7193 10.2151 10.8889 9.99335 11.0678C9.34737 11.6047 8.68212 12.1133 8.09399 12.6973C7.75654 13.0175 7.51551 13.4319 7.29376 13.8275C7.0238 14.2984 6.85025 14.8165 6.58994 15.2968C6.27177 15.8808 5.7897 16.2387 5.00875 16.2575C4.28564 16.2764 3.82285 16.6531 3.7168 17.1994C4.67129 17.416 6.05001 16.9451 6.65742 16.088C7.00451 15.5982 7.20699 15.0237 7.45766 14.4774C7.6987 13.9594 7.87224 13.4131 8.33503 13.0928C8.46037 13.4413 8.47965 13.8652 8.73032 14.1195C9.00028 14.3926 9.46307 14.5245 9.85837 14.6752C10.1476 14.7788 10.4658 14.8165 10.7743 14.8636C11.4203 14.9672 12.0084 15.1744 12.4905 15.5888C12.529 15.6171 12.5676 15.6453 12.5965 15.6641C13.0497 15.9938 13.5317 16.2764 14.1391 15.9938C14.7851 15.6924 14.9779 15.1367 14.8623 14.5527C14.7658 14.0441 14.5152 13.5544 14.332 13.0834C14.8719 13.4884 15.1322 14.0912 15.325 14.7223C15.4407 15.0896 15.5275 15.4664 15.6432 15.8243C15.6818 15.9467 15.8071 16.0409 15.8939 16.1445C15.8939 16.1445 15.9035 16.1445 15.9035 16.1351V16.1445C15.9324 16.1162 15.971 16.088 15.9999 16.0597C16.0289 16.088 16.0674 16.1162 16.0963 16.1445V16.1351C16.0963 16.1351 16.106 16.1351 16.106 16.1445C16.1928 16.0409 16.3085 15.9373 16.3567 15.8243C16.482 15.4569 16.5591 15.0896 16.6748 14.7223C16.8677 14.0912 17.128 13.4979 17.6679 13.0834C17.4944 13.5638 17.2437 14.0441 17.1376 14.5527C17.0219 15.1367 17.2051 15.683 17.8607 15.9938C18.4681 16.2764 18.9406 15.9938 19.4033 15.6641C19.4419 15.6359 19.4805 15.6171 19.5094 15.5888C19.9915 15.1744 20.5796 14.9672 21.2256 14.8636C21.5341 14.8165 21.8523 14.7788 22.1415 14.6752C22.5464 14.5245 23.0092 14.3926 23.2695 14.1195C23.5202 13.8652 23.5395 13.4319 23.6648 13.0928C24.1276 13.4131 24.3012 13.9594 24.5422 14.4774C24.7929 15.0237 24.9954 15.5982 25.3424 16.088C25.9499 16.9451 27.3286 17.416 28.2831 17.1994C28.177 16.6531 27.7142 16.2669 26.9911 16.2575C26.2102 16.2387 25.7281 15.8808 25.4099 15.2968C25.1496 14.8165 24.9761 14.2984 24.7061 13.8275C24.4844 13.4319 24.2337 13.0175 23.9059 12.6973C23.3081 12.1227 22.6429 11.6047 22.0065 11.0678C21.7848 10.8889 21.563 10.7099 21.3123 10.5686C19.7215 9.61735 17.9571 9.18409 16.106 9.11816H15.8939C14.0427 9.18409 12.2784 9.61735 10.6875 10.5686Z" fill="white"/>
<path d="M4.12177 9.0153C4.27604 8.90227 4.40138 8.75157 4.546 8.61971C4.9895 8.21471 5.51978 7.95099 6.15611 7.91331C6.71531 7.88505 7.13953 7.7061 7.44806 7.27284C7.59268 7.06563 7.82407 6.89609 8.04582 6.73598C8.26758 6.57586 8.47969 6.48167 8.8075 6.65121C9.00997 6.75481 9.36669 6.70772 9.61737 6.62295C10.4562 6.36865 11.1889 6.46283 11.8156 7.07505C11.8638 6.55702 11.5939 6.23678 11.0443 6.06725C10.6876 5.96364 10.3501 5.83178 9.99339 5.70934L10.0416 5.66225C10.6586 5.66225 11.2757 5.63399 11.8927 5.68108C12.0952 5.69992 12.3073 5.86946 12.4809 6.00132C12.6158 6.10492 12.7026 6.34039 12.8376 6.35923C13.069 6.38748 13.3197 6.2933 13.5607 6.25562C13.5221 6.07667 13.5414 5.82236 13.4161 5.7376C13.0979 5.52097 12.7412 5.35143 12.3652 5.21957C12.0663 5.11596 11.7192 5.11596 11.401 5.04061C11.2082 4.99352 11.0347 4.89933 10.8418 4.82398C10.8515 4.77689 10.8611 4.7298 10.8708 4.67328C11.1793 4.65445 11.4974 4.63561 11.8445 4.61677C11.6903 4.25886 11.3625 4.17409 11.0347 4.13642C10.0609 4.03281 9.23171 4.28712 8.63395 5.01236C8.41219 5.2855 8.20973 5.56806 8.00726 5.86004C7.54447 6.50993 6.93706 6.95261 6.08862 7.11272C5.64512 7.19749 5.19197 7.27284 4.76775 7.43296C4.35317 7.58366 3.97716 7.81912 3.60114 8.04517C3.30226 8.22413 3.28297 8.51611 3.36975 8.80808C3.51437 9.15658 3.81325 9.24134 4.12177 9.0153Z" fill="white"/>
<path d="M5.05715 6.17982C5.115 6.25517 5.28855 6.24575 5.41388 6.27401C5.3946 6.16099 5.40424 6.02913 5.33675 5.93494C5.05715 5.5111 4.71971 5.11551 4.46903 4.68225C4.37262 4.5033 4.4401 4.24899 4.43046 4.03237C4.6715 4.08888 4.97038 4.07004 5.13428 4.2019C6.22376 5.07784 7.28432 5.20028 8.47021 4.44679C9.4922 3.7969 10.331 2.97747 10.8806 1.96026C11.3433 1.11257 11.1505 0.84885 10.0996 0.811176H9.90677V0.801758C9.73323 0.811176 9.55968 0.811177 9.39578 0.830014C8.63411 0.905364 8.32559 1.3292 8.54734 1.98851C8.62447 2.20514 8.73053 2.40293 8.85586 2.60072C9.07762 2.95863 9.01013 3.27887 8.74017 3.58027C8.20989 4.18306 6.84081 4.22074 6.26233 3.65562C5.88631 3.27887 5.45245 2.98689 4.88361 2.91154C4.40154 2.84561 3.97731 2.95863 3.66879 3.30713C3.36026 3.65562 3.35062 4.07946 3.59166 4.41853C4.0448 5.04016 4.5558 5.60528 5.05715 6.17982Z" fill="white"/>
<path d="M8.89431 9.01478C9.3571 8.4214 9.87773 7.92221 10.7069 7.75267C10.6972 7.715 10.6876 7.67732 10.678 7.63965H9.41495C8.75933 7.63965 8.27726 7.90337 7.8434 8.34605C7.52523 8.6757 7.07208 8.89233 6.6575 9.1278C6.43575 9.25024 6.15615 9.29734 5.92476 9.41036C5.51018 9.61757 5.3752 10.0037 5.56803 10.3334C5.7705 10.6913 6.23328 10.842 6.6575 10.6254C7.50595 10.2204 8.31583 9.74001 8.89431 9.01478Z" fill="white"/>
<path d="M0.920886 13.8464C1.02694 13.4508 1.14264 13.0646 1.21977 12.6691C1.42224 11.7083 1.91395 11.1903 2.80096 11.1338C3.13841 11.115 3.52406 11.1809 3.83259 11.3222C4.65211 11.6707 5.49091 11.7272 6.35864 11.5953C6.49361 11.5765 6.62859 11.5011 6.82142 11.4258C6.70572 11.3693 6.66716 11.3316 6.63824 11.3316C5.85729 11.4446 5.23059 11.1997 4.70996 10.6817C4.31466 10.2861 3.81331 10.0224 3.21554 9.95648C2.55993 9.88113 2.03929 10.0883 1.68256 10.5781C0.959454 11.5577 0.699136 12.6502 0.766626 13.8087C0.814833 13.8276 0.872679 13.837 0.920886 13.8464Z" fill="white"/>
<path d="M6.19459 12.5466C6.17531 12.5089 6.16567 12.4713 6.14638 12.4336C5.57754 12.5184 5.0087 12.6031 4.43986 12.6785C4.17954 12.7162 3.90958 12.7538 3.64927 12.7256C3.14791 12.6691 2.80082 12.848 2.52122 13.1965C2.23198 13.5544 1.96202 13.9123 1.6535 14.2514C1.39318 14.534 1.09429 14.7977 0.79541 15.0802C1.00752 15.4287 1.46067 15.5041 1.8174 15.165C2.06808 14.9295 2.25126 14.647 2.45373 14.3833C2.68512 14.0724 3.01293 13.9029 3.40823 13.9406C4.73874 14.0913 5.46184 13.319 6.19459 12.5466Z" fill="white"/>
<path d="M13.0787 1.6401C13.4547 2.33708 13.7343 2.41243 14.3802 1.8944C15.0455 2.15812 14.8912 2.70441 14.9105 3.27895C15.5276 2.47836 15.4312 1.47998 14.7177 0.792417C14.2453 0.349739 13.6957 0.0106669 12.963 0.00124824C12.6351 -0.00817044 12.3073 0.0295043 12.2398 0.330902C12.2013 0.509857 12.3748 0.754743 12.5002 0.943116C12.6737 1.188 12.9437 1.38579 13.0787 1.6401Z" fill="white"/>
<path d="M1.83678 17.5014C2.77199 17.1624 3.56259 16.682 3.73613 15.6931C3.76506 15.5141 3.71685 15.3257 3.64936 15.1279C3.09016 15.9097 2.20316 16.2017 1.33543 16.5219C0.29416 16.9081 -0.0818555 17.3884 0.0145585 18.189C0.053124 18.5563 0.236308 18.8483 0.650888 19.0838C0.650888 18.0383 0.776225 17.8876 1.83678 17.5014Z" fill="white"/>
<path d="M15.894 3.93848C15.8168 3.97615 15.7493 4.00441 15.6722 4.03266C15.6336 4.0515 15.6144 4.08917 15.5469 4.16452C15.6626 4.16452 15.7783 4.15511 15.894 4.14569V3.93848Z" fill="white"/>
<path d="M4.25664 18.7534C3.30214 19.2997 2.849 20.3923 3.22501 21.4472C3.50461 20.5618 4.25664 20.1757 4.93154 19.7047C5.67393 19.1867 6.19456 18.5085 6.46452 17.6797C6.50308 17.5478 6.52236 17.416 6.51272 17.2559C5.96316 18.0282 5.04723 18.3108 4.25664 18.7534Z" fill="white"/>
<path d="M12.4906 3.63705C13.5126 3.61822 14.0429 4.08915 14.496 4.77672C14.5249 4.82381 14.5731 4.85207 14.631 4.918C14.5924 2.79879 12.9437 2.15832 11.3143 2.17716C11.1408 2.87414 11.6614 3.64647 12.4906 3.63705Z" fill="white"/>
<path d="M10.4175 15.8622C10.6875 15.9846 10.8514 16.06 11.131 16.1824C10.1379 16.5121 9.40514 16.0976 8.63383 15.8057C8.52778 16.1636 8.72061 16.3802 9.02913 16.5026C9.27981 16.6063 9.56905 16.691 9.83901 16.691C10.7935 16.7099 11.7384 16.7004 12.7218 16.7004C12.4518 16.0788 11.5359 15.7397 10.4175 15.8622Z" fill="white"/>
<path d="M11.3431 17.1904C11.2177 17.5389 11.3527 17.765 11.6998 17.8592C12.0373 17.9533 12.2879 17.8403 12.5 17.473C11.9794 17.6614 11.5745 17.6802 11.3431 17.1904Z" fill="white"/>
<path d="M15.8939 6.27426V4.91797C15.8554 4.93681 15.8072 4.96506 15.7686 4.9839C14.602 5.62437 14.2453 6.3967 14.5634 7.68706C14.9105 7.08426 15.3444 6.60391 15.8939 6.27426Z" fill="white"/>
<path d="M14.5826 29.0294C14.949 29.1706 15.3636 29.1989 15.7781 29.2837C15.8553 29.2648 15.9324 29.2554 15.9999 29.246C16.077 29.2554 16.1542 29.2742 16.2217 29.2837C16.6362 29.1989 17.0508 29.1706 17.4172 29.0294C17.5811 28.9634 17.7546 28.6714 17.7257 28.5019C17.6968 28.3418 17.4172 28.1063 17.2436 28.0969C16.8291 28.0875 16.4145 28.0875 15.9999 28.0969C15.5853 28.0875 15.1707 28.0875 14.7562 28.0969C14.5826 28.0969 14.303 28.3418 14.2741 28.5019C14.2452 28.6714 14.4091 28.9634 14.5826 29.0294Z" fill="white"/>
</svg>
