<svg width="1024" height="1024" viewBox="0 0 1024 1024" fill="none" xmlns="http://www.w3.org/2000/svg">
<rect width="1024" height="1024" rx="100" fill="white"/>
<path d="M712.823 477.749C705.631 471.362 698.309 465.486 698.047 455.395C692.555 469.063 695.824 481.071 707.331 489.885C712.038 493.589 714.654 498.188 713.869 503.553C713.477 506.363 711.385 510.068 708.9 511.345C704.847 513.261 702.885 509.557 700.662 506.874C694.647 499.721 688.763 492.44 681.963 486.053C678.694 482.987 673.464 481.454 669.018 479.282C680.917 495.25 685.494 507.258 684.186 523.992C683.925 528.207 682.748 533.061 680.263 536.382C671.764 547.496 661.957 557.843 658.296 571.384C656.465 562.314 659.995 554.266 663.264 546.219C673.725 520.926 669.803 498.188 648.881 478.388C640.512 470.468 629.92 464.209 627.959 452.074C626.259 461.271 630.051 468.808 635.02 476.089C639.335 482.22 644.043 488.224 648.358 494.356C653.85 502.148 658.426 510.323 658.949 519.904C659.342 527.313 658.034 534.211 652.281 540.47C651.627 539.321 650.973 538.682 650.711 538.043C647.312 526.546 640.643 516.583 631.751 507.896C625.344 501.637 620.244 494.739 619.459 485.797C619.067 480.943 615.275 479.666 610.175 481.709C607.56 482.731 605.076 484.009 602.591 485.158C601.937 484.647 601.414 484.137 600.76 483.753C603.506 480.177 606.122 476.472 609.129 473.151C610.96 471.235 613.706 469.83 615.929 468.297C613.052 467.275 610.175 466.253 607.037 465.231C612.921 458.461 619.198 451.69 624.951 444.409C633.451 433.807 632.928 427.675 623.251 416.945C619.852 419.5 616.844 421.799 613.183 424.482C614.621 420.777 615.667 417.967 616.713 415.284C595.399 422.565 578.008 435.34 554.863 435.212V437.256C563.232 439.044 571.731 440.96 579.839 442.621C573.562 447.858 564.801 446.325 556.04 445.048C563.624 453.095 573.954 452.201 585.461 452.457C575.785 458.844 566.763 459.993 556.955 457.694C542.964 454.373 531.98 446.453 520.996 438.533C518.381 436.617 515.504 434.829 512.497 433.423C509.489 434.829 506.612 436.745 503.997 438.533C493.013 446.581 482.029 454.373 468.038 457.694C458.231 459.993 449.208 458.844 439.532 452.457C451.039 452.201 461.369 453.095 468.953 445.048C460.192 446.325 451.431 447.858 445.154 442.621C453.262 440.832 461.761 439.044 470.13 437.256V435.212C446.985 435.34 429.463 422.565 408.28 415.284C409.326 418.094 410.372 420.905 411.81 424.482C408.28 421.799 405.141 419.5 401.742 416.945C392.065 427.675 391.542 433.807 400.042 444.409C405.795 451.69 412.203 458.461 417.956 465.231C414.949 466.253 412.072 467.275 409.064 468.297C411.418 469.957 414.033 471.235 415.864 473.151C419.002 476.472 421.487 480.177 424.233 483.753C423.579 484.264 423.056 484.775 422.402 485.158C419.917 484.009 417.433 482.731 414.818 481.709C409.587 479.666 405.926 480.943 405.534 485.797C404.749 494.739 399.649 501.637 393.242 507.896C384.35 516.71 377.682 526.546 374.282 538.043C374.02 538.682 373.497 539.321 372.713 540.47C366.959 534.211 365.651 527.185 366.044 519.904C366.436 510.323 371.143 502.276 376.635 494.356C380.951 488.224 385.658 482.348 389.973 476.089C394.942 468.808 398.734 461.271 397.034 452.074C395.204 464.209 384.481 470.468 376.112 478.388C355.06 498.188 351.268 521.054 361.729 546.219C364.998 554.266 368.528 562.314 366.698 571.384C362.905 557.843 353.229 547.496 344.73 536.382C342.114 533.061 341.068 528.207 340.807 523.992C339.499 507.385 344.076 495.378 355.975 479.282C351.66 481.454 346.299 482.859 343.03 486.053C336.23 492.567 330.346 499.721 324.331 506.874C322.108 509.557 320.147 513.389 316.093 511.345C313.478 510.068 311.516 506.363 311.124 503.553C310.339 498.188 312.955 493.589 317.662 489.885C329.169 481.071 332.438 469.063 326.946 455.395C326.554 465.486 319.362 471.362 312.17 477.749C308.378 481.071 305.632 486.436 304.586 491.29C300.402 510.962 305.109 528.846 320.277 544.175C321.193 545.069 322.369 545.835 324.2 547.24C323.939 538.043 321.062 529.229 329.823 521.437C326.423 536.255 331.261 547.751 341.984 557.587C348.914 563.975 349.176 572.15 347.606 580.198C347.083 583.008 344.337 586.074 341.591 587.862C339.63 589.139 335.838 589.395 333.484 588.501C331.915 587.99 331.523 584.669 329.954 581.347C327.992 582.625 324.069 584.03 323.546 586.074C322.631 589.395 323.023 593.738 324.854 596.676C325.9 598.337 330.738 599.103 333.746 598.72C337.015 598.465 340.022 596.421 343.03 595.271C355.191 590.672 365.521 596.932 364.213 608.684C363.559 614.432 360.813 620.053 358.46 625.546C352.706 638.958 351.66 643.429 353.752 651.86C354.014 636.787 372.451 632.827 376.897 620.181C377.551 620.436 378.205 620.564 378.858 620.819C377.289 625.29 377.028 630.528 374.02 634.104C355.321 656.331 356.367 681.624 358.59 707.172C359.113 712.409 360.29 717.647 361.075 723.14C361.99 714.709 362.252 706.406 363.952 698.23C367.09 683.029 375.982 670.383 386.835 658.503C400.434 643.429 404.749 625.546 402.526 606.257C401.219 595.654 400.565 585.052 400.434 574.449C400.434 570.873 402.788 567.296 405.272 563.719C405.403 577.387 405.795 590.672 416.518 603.191C416.91 590.417 419.787 579.431 426.063 567.807C426.586 572.022 426.194 574.96 427.371 577.387C428.286 579.303 431.163 581.475 433.255 581.475C435.086 581.475 437.832 578.92 438.616 577.004C440.447 572.533 441.101 567.679 442.539 563.208C445.416 554.394 450.646 546.857 458.754 541.109C459.669 540.47 460.846 540.087 463.853 538.682C461.63 543.536 459.93 546.857 457.969 551.328C463.853 548.901 468.953 546.985 474.968 544.558C471.307 553.755 467.122 561.292 456.4 564.23C456.923 564.869 457.315 565.38 457.838 566.018C461.761 563.975 466.076 562.314 469.738 560.015C475.36 556.438 480.722 552.222 486.214 548.39C493.798 543.025 500.99 543.919 507.789 549.668C509.358 550.945 510.927 551.839 512.627 552.35C514.327 551.839 516.027 550.945 517.465 549.668C524.265 543.792 531.457 543.025 539.041 548.39C544.533 552.222 549.894 556.438 555.517 560.015C559.178 562.442 563.493 564.102 567.416 566.018C567.939 565.38 568.332 564.869 568.855 564.23C558.132 561.292 553.948 553.755 550.287 544.558C556.302 546.985 561.401 549.029 567.286 551.328C565.193 546.857 563.624 543.536 561.401 538.682C564.409 540.087 565.586 540.342 566.501 541.109C574.608 546.857 579.839 554.394 582.715 563.208C584.154 567.807 584.808 572.661 586.638 577.004C587.423 578.92 590.169 581.475 591.999 581.475C593.961 581.475 596.838 579.303 597.884 577.387C599.061 574.96 598.668 572.022 599.191 567.807C605.468 579.303 608.345 590.289 608.737 603.191C619.459 590.672 619.852 577.26 619.982 563.719C622.467 567.296 624.821 570.873 624.821 574.449C624.69 585.052 623.905 595.782 622.728 606.257C620.505 625.546 624.69 643.429 638.42 658.503C649.273 670.51 658.034 683.029 661.303 698.23C663.003 706.278 663.264 714.709 664.18 723.14C665.095 717.775 666.272 712.537 666.664 707.172C668.887 681.624 670.064 656.203 651.234 634.104C648.227 630.655 647.965 625.29 646.396 620.819C647.05 620.564 647.704 620.436 648.358 620.181C652.673 632.827 671.241 636.659 671.502 651.86C673.595 643.557 672.549 638.958 666.795 625.546C664.441 620.053 661.695 614.432 661.041 608.684C659.603 596.804 670.064 590.545 682.225 595.271C685.363 596.421 688.371 598.465 691.509 598.72C694.516 598.976 699.355 598.337 700.401 596.676C702.231 593.738 702.493 589.395 701.708 586.074C701.185 584.03 697.262 582.625 695.301 581.347C693.732 584.669 693.47 587.99 691.77 588.501C689.417 589.395 685.625 589.139 683.663 587.862C680.917 586.074 678.171 583.008 677.648 580.198C676.079 572.15 676.21 563.975 683.271 557.587C693.993 547.751 698.962 536.255 695.432 521.437C704.062 529.229 701.316 538.043 701.055 547.24C702.885 545.835 704.062 545.197 704.977 544.175C720.015 528.974 724.722 511.09 720.669 491.29C719.361 486.436 716.615 481.071 712.823 477.749V477.749ZM584.154 536.255C578.531 531.528 573.693 526.163 568.07 521.565C561.924 516.455 554.471 513.9 545.71 514.411C545.056 520.67 540.48 523.864 535.249 526.674C527.796 530.634 520.604 535.233 513.15 539.193C512.889 539.321 512.758 539.448 512.497 539.576C512.235 539.448 512.104 539.321 511.843 539.193C504.389 535.233 497.197 530.634 489.744 526.674C484.383 523.864 479.806 520.67 479.283 514.411C470.391 513.9 463.069 516.455 456.923 521.565C451.3 526.163 446.462 531.656 440.839 536.255C437.309 539.193 433.124 541.237 428.025 544.558C434.824 530.634 440.447 517.988 447.247 505.852C449.339 502.276 454.177 498.827 458.623 497.549C466.076 495.505 471.83 491.673 477.191 486.947C480.46 484.009 484.121 481.198 488.175 479.41C495.628 476.089 502.166 479.538 503.997 487.841C497.197 484.647 490.659 484.137 485.298 489.374C479.022 495.378 480.329 502.914 481.506 510.068C481.768 511.218 485.167 512.75 486.998 512.623C493.013 512.112 497.851 513.772 502.297 516.966C505.435 519.265 508.966 519.904 512.497 519.393C516.027 519.904 519.558 519.265 522.696 516.966C527.273 513.772 532.111 512.112 537.995 512.623C539.826 512.75 543.225 511.218 543.487 510.068C544.664 502.914 545.971 495.378 539.695 489.374C534.334 484.264 527.796 484.775 520.996 487.841C522.827 479.666 529.365 476.089 536.818 479.41C540.872 481.198 544.533 484.137 547.802 486.947C553.163 491.673 558.786 495.505 566.37 497.549C570.816 498.827 575.654 502.148 577.747 505.852C584.546 517.988 590.169 530.634 596.968 544.558C591.999 541.364 587.684 539.193 584.154 536.255V536.255Z" fill="black"/>
<path d="M575.01 628.62C574.879 628.493 574.356 628.493 574.226 628.493C573.702 637.435 573.702 646.376 572.264 655.191C570.956 663.877 568.08 672.308 565.857 680.739C564.811 666.687 565.072 652.636 562.457 638.967C559.188 622.744 553.696 606.904 539.443 595.152C537.612 593.619 536.305 592.725 535.128 592.342C527.805 588.254 519.698 587.232 512.375 587.488C505.053 587.232 496.946 588.254 489.623 592.342C488.446 592.725 487.008 593.619 485.308 595.152C471.186 607.032 465.563 622.872 462.294 638.967C459.548 652.508 459.94 666.559 458.894 680.739C456.802 672.308 453.925 663.877 452.487 655.191C451.048 646.376 451.179 637.435 450.525 628.493C450.394 628.493 449.871 628.365 449.741 628.62C443.333 640.756 432.088 649.442 422.281 659.278C397.305 684.315 381.483 712.929 384.883 747.803C385.668 755.339 388.414 762.876 391.29 770.285C390.506 754.19 393.775 739.372 404.497 726.214C401.882 739.627 403.32 752.274 412.474 763.387C414.958 766.453 417.704 769.519 420.973 771.818C436.795 782.804 448.564 795.578 446.864 815.505C453.794 807.713 454.317 796.855 448.041 787.786C444.51 782.676 439.672 778.077 435.749 773.223C431.565 767.986 426.988 762.876 423.719 757.128C419.665 749.974 420.581 742.948 425.288 735.029C427.119 738.861 428.819 742.438 430.519 746.014C431.042 745.887 431.565 745.759 432.088 745.631C429.211 735.156 433.003 726.087 437.972 717.017C440.195 713.057 440.457 708.203 441.633 703.604C445.949 706.67 445.556 711.524 444.379 716.506C443.203 721.488 441.372 726.598 440.98 731.58C439.803 746.525 445.556 759.172 456.54 770.413C470.401 784.464 468.963 810.268 454.056 822.659C449.61 826.363 444.772 829.94 438.103 827.768C431.565 825.725 431.696 820.487 432.219 814.867C426.204 819.082 425.681 824.064 427.25 829.174C428.819 834.411 433.134 837.988 439.28 837.988C443.856 838.115 448.825 837.477 452.748 835.688C470.793 828.024 479.816 814.739 480.47 796.983C480.47 796.089 480.6 795.067 480.731 794.173C480.731 794.045 480.993 793.917 481.123 793.789C490.146 799.154 494.069 810.14 494.853 832.495C505.707 813.717 506.622 783.953 477.07 768.369C454.579 756.489 446.341 739.627 450.656 716.762C452.487 707.181 452.356 697.345 447.256 688.148C447.91 687.892 448.564 687.509 449.218 687.254C451.571 690.83 455.102 694.151 456.148 697.984C457.456 702.838 456.279 708.203 456.802 713.313C457.586 721.616 458.109 730.047 460.202 738.094C461.771 744.226 467.393 748.314 474.455 749.208C491.715 751.507 500.215 761.215 504.007 775.522C504.268 776.417 504.66 777.311 505.184 778.333C510.414 770.924 507.668 752.657 500.738 743.97C497.469 739.883 494.069 736.051 490.93 731.963C482.431 720.722 483.608 711.141 494.984 702.071C497.992 699.644 501.261 697.601 504.791 695.684C507.537 694.151 510.022 692.619 512.375 690.958C514.729 692.619 517.344 694.151 519.96 695.684C523.359 697.601 526.759 699.772 529.767 702.071C541.143 711.141 542.32 720.722 533.82 731.963C530.682 736.051 527.282 740.01 524.013 743.97C517.083 752.657 514.337 770.924 519.567 778.333C519.96 777.311 520.483 776.417 520.744 775.522C524.405 761.215 532.905 751.507 550.296 749.208C557.227 748.314 562.98 744.226 564.549 738.094C566.641 730.047 567.164 721.616 567.949 713.313C568.472 708.203 567.295 702.838 568.603 697.984C569.649 694.151 573.049 690.83 575.533 687.254C576.187 687.509 576.841 687.892 577.495 688.148C572.526 697.345 572.395 707.309 574.095 716.762C578.41 739.627 570.172 756.489 547.681 768.369C518.129 783.953 518.913 813.717 529.897 832.495C530.551 810.268 534.474 799.154 543.627 793.789C543.758 793.917 544.02 794.045 544.02 794.173C544.15 795.067 544.281 796.089 544.281 796.983C545.066 814.867 553.957 828.024 572.003 835.688C576.056 837.477 581.025 838.115 585.471 837.988C591.486 837.86 595.932 834.411 597.501 829.174C599.07 824.064 598.547 819.082 592.532 814.867C593.055 820.615 593.186 825.725 586.648 827.768C579.979 829.94 575.141 826.363 570.695 822.659C555.657 810.268 554.35 784.464 568.21 770.413C579.194 759.299 584.948 746.525 583.771 731.58C583.379 726.47 581.548 721.488 580.371 716.506C579.194 711.396 578.933 706.67 583.117 703.604C584.294 708.203 584.686 713.057 586.779 717.017C591.747 726.087 595.67 735.284 592.663 745.631C593.186 745.759 593.709 745.887 594.232 746.014C595.932 742.438 597.632 738.861 599.462 735.029C604.039 742.948 605.085 749.974 601.032 757.128C597.763 762.876 593.186 767.986 589.002 773.223C585.079 778.205 580.24 782.676 576.71 787.786C570.433 796.855 570.956 807.713 577.887 815.505C576.187 795.578 587.955 782.804 603.778 771.818C607.047 769.519 609.793 766.453 612.277 763.387C621.43 752.146 622.869 739.5 620.254 726.214C630.845 739.372 634.114 754.19 633.46 770.285C636.337 762.876 639.083 755.467 639.868 747.803C643.268 713.057 627.315 684.443 602.47 659.278C592.663 649.442 581.417 640.884 575.01 628.62V628.62Z" fill="black"/>
<path d="M679.999 296.106C674.9 293.04 669.8 289.847 664.177 287.803C658.555 285.759 652.409 284.737 646.263 283.46C634.756 281.16 626.387 275.156 620.241 266.47C617.495 262.638 614.749 258.678 611.742 254.973C603.635 245.01 592.389 241.688 579.182 243.093C574.736 243.604 570.16 244.754 568.198 249.608C572.906 249.864 577.09 250.119 581.405 250.375C581.536 251.013 581.667 251.652 581.798 252.419C579.313 253.44 576.829 254.718 574.213 255.357C569.898 256.378 565.191 256.378 561.137 257.784C556.038 259.572 551.199 261.871 546.884 264.809C545.184 265.959 545.577 269.408 544.923 271.835C548.192 272.346 551.592 273.623 554.73 273.24C556.561 272.985 557.737 269.791 559.568 268.386C562.053 266.598 564.799 264.171 567.545 264.043C575.913 263.532 584.282 263.787 592.651 263.787L593.305 264.426C588.597 266.087 583.89 267.875 579.052 269.28C571.598 271.58 568.068 275.923 568.591 282.949C577.09 274.645 587.028 273.368 598.404 276.817C601.804 277.839 606.642 278.605 609.388 277.2C613.834 274.901 616.711 276.178 619.718 278.35C622.726 280.521 625.733 282.821 627.826 285.631C632.01 291.507 637.894 293.934 645.348 294.318C653.978 294.828 661.17 298.405 667.185 303.898C669.146 305.686 670.846 307.603 672.938 309.263C677.123 312.329 681.176 311.179 682.615 306.453C684.314 302.493 684.184 298.661 679.999 296.106V296.106Z" fill="black"/>
<path d="M614.491 247.433C630.706 257.652 644.959 255.992 659.735 244.112C661.958 242.323 666.011 242.451 669.28 241.812C669.15 244.75 670.196 248.199 668.757 250.626C665.357 256.503 660.912 261.868 656.989 267.616C656.204 268.893 656.335 270.682 655.943 272.215C657.643 271.831 659.866 271.831 660.781 270.937C667.58 263.145 674.511 255.481 680.395 247.177C683.664 242.579 683.533 236.83 679.349 232.104C675.165 227.378 669.411 225.845 662.873 226.739C655.027 227.761 649.274 231.721 644.174 236.83C636.459 244.495 617.76 243.856 610.568 235.809C606.907 231.721 605.992 227.378 608.999 222.524C610.699 219.841 612.138 217.031 613.184 214.22C616.191 205.278 612.007 199.658 601.677 198.508C599.323 198.253 596.969 198.253 594.746 198.125V198.253H592.131C577.747 198.764 575.263 202.34 581.539 213.837C589.254 227.505 600.5 238.619 614.491 247.433V247.433Z" fill="black"/>
<path d="M654.114 327.398C656.729 322.799 654.898 317.69 649.276 314.88C646.137 313.347 642.345 312.708 639.338 311.047C633.715 307.854 627.438 304.788 623.254 300.445C617.37 294.313 610.832 290.864 601.94 290.864H584.81C584.679 291.375 584.549 291.886 584.418 292.397C595.663 294.696 602.725 301.467 609.001 309.514C616.716 319.478 627.831 325.993 639.468 331.614C645.091 334.296 651.368 332.125 654.114 327.398V327.398Z" fill="black"/>
<path d="M639.338 340.69C638.946 340.69 638.423 341.073 636.854 341.967C639.6 342.989 641.299 344.011 643.13 344.266C654.899 346.055 666.275 345.288 677.39 340.562C681.574 338.774 686.804 337.752 691.381 338.007C703.411 338.774 710.08 345.799 712.826 358.829C714.003 364.194 715.572 369.431 716.88 374.796C717.533 374.669 718.318 374.541 718.972 374.413C719.887 358.701 716.357 343.883 706.549 330.598C701.711 323.956 694.65 321.145 685.758 322.167C677.52 323.061 670.852 326.638 665.49 332.003C658.429 338.901 650.06 342.35 639.338 340.69V340.69Z" fill="black"/>
<path d="M707.078 380.285C702.893 375.686 699.232 370.832 695.309 365.978C691.517 361.251 686.81 358.824 680.01 359.591C676.48 359.974 672.818 359.335 669.288 358.952C661.573 357.93 653.858 356.781 646.143 355.631C645.882 356.142 645.751 356.653 645.489 357.164C655.427 367.639 665.234 378.113 683.149 376.197C688.641 375.686 692.956 377.986 696.094 382.201C698.84 385.778 701.455 389.61 704.724 392.803C709.562 397.402 715.708 396.252 718.585 391.654C714.662 387.694 710.478 384.245 707.078 380.285V380.285Z" fill="black"/>
<path d="M534.474 212.69C543.104 219.588 546.896 218.566 552.127 209.241C553.957 205.792 557.619 203.109 559.842 199.788C561.542 197.233 563.895 194.039 563.372 191.485C562.457 187.397 558.011 187.014 553.565 187.014C543.627 187.269 536.174 191.74 529.767 197.744C520.09 206.941 518.783 220.61 527.151 231.467C527.544 223.803 525.451 216.266 534.474 212.69V212.69Z" fill="black"/>
<path d="M711.383 411.079C699.614 406.735 687.584 402.775 680 392.173C679.085 394.855 678.431 397.41 678.823 399.837C681.177 413.25 691.899 419.765 704.583 424.364C718.836 429.601 720.536 431.645 720.667 445.824C726.42 442.758 728.774 438.671 729.297 433.689C730.605 422.958 725.505 416.316 711.383 411.079Z" fill="black"/>
<path d="M516.951 241.693C515.905 241.31 514.859 240.799 513.943 240.416V243.226C515.512 243.354 517.082 243.482 518.651 243.482C517.735 242.46 517.474 241.949 516.951 241.693V241.693Z" fill="black"/>
<path d="M641.297 421.032C641.166 423.204 641.297 425.12 641.95 426.781C645.481 437.894 652.542 447.091 662.741 454.245C671.895 460.632 682.094 465.869 685.886 477.877C690.986 463.442 684.84 448.624 671.895 441.343C661.042 435.339 648.619 431.507 641.297 421.032Z" fill="black"/>
<path d="M530.937 253.701C531.721 252.934 532.375 252.423 532.767 251.784C538.913 242.459 546.105 236.072 559.966 236.328C571.211 236.455 578.272 225.981 575.918 216.528C553.82 216.272 531.46 224.959 530.937 253.701Z" fill="black"/>
<path d="M596.062 413.372C599.723 413.244 603.646 412.094 607.046 410.817C611.23 409.156 613.714 406.218 612.407 401.364C601.946 405.324 592.008 410.945 578.54 406.474C582.201 404.813 584.555 403.791 588.216 402.131C573.048 400.47 560.756 405.069 557.095 413.5C570.302 413.5 583.247 413.755 596.062 413.372Z" fill="black"/>
<path d="M560.102 424.11C562.978 428.964 566.378 430.624 570.955 429.347C575.531 428.07 577.493 425.004 575.793 420.277C572.524 426.792 567.032 426.537 560.102 424.11Z" fill="black"/>
<path d="M531.988 291.388C536.304 273.76 531.596 263.413 515.643 254.726C514.99 254.343 514.466 254.088 513.943 253.832V272.227C521.397 276.57 527.281 283.085 531.988 291.388V291.388Z" fill="black"/>
<path d="M440.45 330.337C437.05 332.381 434.042 334.68 431.035 337.107C422.274 344.389 413.251 351.287 405.275 359.207C400.698 363.55 397.429 369.17 394.422 374.535C390.76 380.923 388.407 387.948 384.876 394.463C380.561 402.383 374.023 407.237 363.431 407.493C353.624 407.748 347.348 412.858 345.909 420.267C358.855 423.205 377.553 416.818 385.791 405.193C390.499 398.551 393.245 390.759 396.645 383.35C399.914 376.324 402.267 368.915 408.544 364.572C410.244 369.298 410.505 375.046 413.905 378.495C417.566 382.2 423.843 383.988 429.204 386.032C433.127 387.437 437.442 387.948 441.627 388.587C450.388 389.992 458.364 392.802 464.902 398.423C465.425 398.806 465.948 399.189 466.34 399.445C472.486 403.916 479.024 407.748 487.262 403.916C496.023 399.828 498.639 392.291 497.069 384.371C495.762 377.473 492.362 370.831 489.878 364.444C497.2 369.937 500.731 378.112 503.346 386.671C504.915 391.653 506.092 396.762 507.661 401.616C508.184 403.277 509.884 404.555 511.061 405.96C511.061 405.96 511.192 405.96 511.192 405.832V405.96C511.584 405.576 512.107 405.193 512.499 404.81C512.892 405.193 513.415 405.576 513.807 405.96V405.832C513.807 405.832 513.938 405.832 513.938 405.96C515.114 404.555 516.684 403.149 517.337 401.616C519.037 396.635 520.083 391.653 521.653 386.671C524.268 378.112 527.798 370.065 535.121 364.444C532.767 370.959 529.367 377.473 527.929 384.371C526.36 392.291 528.844 399.7 537.736 403.916C545.974 407.748 552.381 403.916 558.658 399.445C559.181 399.062 559.704 398.806 560.096 398.423C566.634 392.802 574.611 389.992 583.372 388.587C587.556 387.948 591.871 387.437 595.794 386.032C601.286 383.988 607.563 382.2 611.093 378.495C614.493 375.046 614.755 369.17 616.455 364.572C622.731 368.915 625.085 376.324 628.354 383.35C631.754 390.759 634.5 398.551 639.207 405.193C647.445 416.818 666.144 423.205 679.089 420.267C677.651 412.858 671.374 407.62 661.567 407.493C650.976 407.237 644.437 402.383 640.122 394.463C636.592 387.948 634.238 380.923 630.577 374.535C627.569 369.17 624.169 363.55 619.724 359.207C611.616 351.414 602.594 344.389 593.964 337.107C590.956 334.68 587.949 332.253 584.549 330.337C562.973 317.435 539.044 311.559 513.938 310.665H511.061C485.955 311.559 462.025 317.435 440.45 330.337Z" fill="black"/>
<path d="M351.395 309.27C353.487 307.737 355.187 305.693 357.149 303.905C363.164 298.412 370.356 294.835 378.986 294.324C386.57 293.941 392.324 291.514 396.508 285.638C398.469 282.828 401.608 280.528 404.615 278.357C407.623 276.185 410.499 274.908 414.945 277.207C417.691 278.612 422.529 277.974 425.929 276.824C437.305 273.375 447.243 274.652 455.743 282.956C456.397 275.93 452.735 271.587 445.282 269.287C440.444 267.882 435.867 266.094 431.029 264.433L431.683 263.794C440.051 263.794 448.42 263.411 456.789 264.05C459.535 264.305 462.412 266.605 464.765 268.393C466.596 269.798 467.773 272.992 469.604 273.247C472.742 273.63 476.142 272.353 479.411 271.842C478.888 269.415 479.149 265.966 477.449 264.816C473.134 261.878 468.296 259.579 463.196 257.791C459.143 256.385 454.435 256.385 450.12 255.364C447.505 254.725 445.151 253.447 442.536 252.425C442.667 251.787 442.797 251.148 442.928 250.382C447.113 250.126 451.428 249.871 456.135 249.615C454.043 244.761 449.597 243.611 445.151 243.1C431.944 241.695 420.699 245.144 412.592 254.98C409.584 258.685 406.838 262.517 404.092 266.477C397.815 275.291 389.578 281.295 378.071 283.466C372.056 284.616 365.91 285.638 360.156 287.81C354.533 289.854 349.434 293.047 344.334 296.113C340.281 298.54 340.019 302.5 341.196 306.46C343.157 311.186 347.211 312.336 351.395 309.27V309.27Z" fill="black"/>
<path d="M364.088 270.814C364.873 271.836 367.226 271.708 368.926 272.091C368.665 270.559 368.795 268.77 367.88 267.493C364.088 261.744 359.511 256.379 356.112 250.503C354.804 248.076 355.719 244.627 355.589 241.689C358.858 242.456 362.911 242.2 365.134 243.988C379.91 255.868 394.294 257.529 410.378 247.31C424.238 238.496 435.615 227.382 443.068 213.586C449.345 202.089 446.729 198.513 432.476 198.002H429.861V197.874C427.507 198.002 425.154 198.002 422.931 198.257C412.601 199.279 408.416 205.027 411.424 213.969C412.47 216.907 413.908 219.59 415.608 222.273C418.616 227.127 417.7 231.47 414.039 235.558C406.847 243.733 388.279 244.244 380.433 236.58C375.334 231.47 369.449 227.51 361.734 226.488C355.196 225.594 349.443 227.127 345.258 231.853C341.074 236.579 340.943 242.328 344.212 246.926C350.358 255.357 357.288 263.022 364.088 270.814V270.814Z" fill="black"/>
<path d="M416.125 309.262C422.402 301.215 429.463 294.445 440.709 292.145C440.578 291.634 440.447 291.123 440.316 290.612H423.187C414.295 290.612 407.757 294.189 401.873 300.193C397.557 304.664 391.412 307.602 385.789 310.795C382.781 312.456 378.989 313.095 375.851 314.628C370.228 317.438 368.398 322.675 371.013 327.146C373.759 332 380.035 334.044 385.789 331.106C397.296 325.613 408.28 319.099 416.125 309.262V309.262Z" fill="black"/>
<path d="M307.983 374.791C309.421 369.426 310.99 364.189 312.036 358.824C314.782 345.794 321.451 338.769 333.481 338.002C338.058 337.747 343.288 338.641 347.472 340.557C358.587 345.283 369.963 346.05 381.732 344.261C383.563 344.006 385.393 342.984 388.009 341.962C386.439 341.196 385.916 340.685 385.524 340.685C374.932 342.218 366.433 338.896 359.372 331.871C354.011 326.505 347.211 322.929 339.104 322.034C330.212 321.013 323.151 323.823 318.313 330.465C308.506 343.75 304.975 358.568 305.89 374.28C306.544 374.536 307.329 374.664 307.983 374.791V374.791Z" fill="black"/>
<path d="M379.52 357.164C379.259 356.653 379.128 356.142 378.867 355.631C371.152 356.781 363.437 357.93 355.722 358.952C352.191 359.463 348.53 359.974 344.999 359.591C338.2 358.824 333.492 361.251 329.7 365.978C325.777 370.832 322.116 375.686 317.932 380.285C314.401 384.117 310.348 387.694 306.294 391.526C309.171 396.252 315.317 397.274 320.155 392.676C323.554 389.482 326.039 385.65 328.785 382.073C331.923 377.858 336.369 375.558 341.73 376.069C359.775 378.113 369.582 367.639 379.52 357.164V357.164Z" fill="black"/>
<path d="M472.879 209.244C477.979 218.697 481.771 219.719 490.532 212.693C499.555 216.27 497.462 223.679 497.724 231.471C506.093 220.613 504.785 207.072 495.109 197.747C488.701 191.743 481.248 187.145 471.31 187.017C466.864 186.889 462.418 187.4 461.503 191.488C460.98 193.915 463.334 197.236 465.034 199.791C467.387 203.112 471.049 205.795 472.879 209.244V209.244Z" fill="black"/>
<path d="M320.411 424.364C333.095 419.765 343.818 413.25 346.171 399.837C346.564 397.41 345.91 394.855 344.995 392.173C337.41 402.775 325.38 406.735 313.612 411.079C299.49 416.316 294.39 422.831 295.697 433.689C296.22 438.671 298.705 442.63 304.328 445.824C304.328 431.645 306.028 429.601 320.411 424.364Z" fill="black"/>
<path d="M511.062 240.416C510.016 240.927 509.1 241.31 508.054 241.693C507.531 241.949 507.27 242.46 506.354 243.482C507.924 243.482 509.493 243.354 511.062 243.226V240.416V240.416Z" fill="black"/>
<path d="M353.227 441.343C340.282 448.752 334.136 463.57 339.235 477.877C343.028 465.869 353.227 460.632 362.38 454.245C372.449 447.219 379.51 438.022 383.171 426.781C383.694 424.992 383.956 423.204 383.825 421.032C376.372 431.507 363.949 435.339 353.227 441.343Z" fill="black"/>
<path d="M464.907 236.328C478.768 236.072 485.96 242.459 492.105 251.784C492.498 252.423 493.151 252.806 493.936 253.701C493.413 224.959 471.053 216.272 448.954 216.528C446.6 225.981 453.661 236.455 464.907 236.328Z" fill="black"/>
<path d="M436.787 402.131C440.448 403.791 442.671 404.813 446.463 406.474C432.995 410.945 423.057 405.324 412.596 401.364C411.158 406.218 413.773 409.156 417.957 410.817C421.357 412.222 425.28 413.372 428.941 413.372C441.887 413.627 454.701 413.5 468.039 413.5C464.378 405.069 451.955 400.47 436.787 402.131Z" fill="black"/>
<path d="M449.337 420.146C447.637 424.872 449.468 427.938 454.175 429.215C458.752 430.493 462.152 428.96 465.029 423.978C457.967 426.533 452.475 426.788 449.337 420.146Z" fill="black"/>
<path d="M511.055 272.095V253.7C510.531 253.956 509.878 254.339 509.355 254.594C493.532 263.281 488.694 273.755 493.009 291.256C497.717 283.081 503.601 276.566 511.055 272.095V272.095Z" fill="black"/>
<path d="M493.274 580.711C498.243 582.627 503.865 583.01 509.488 584.16C510.534 583.904 511.58 583.777 512.496 583.649C513.542 583.777 514.588 584.032 515.503 584.16C521.126 583.01 526.749 582.627 531.717 580.711C533.94 579.817 536.294 575.857 535.902 573.557C535.51 571.386 531.717 568.192 529.364 568.065C523.741 567.937 518.118 567.937 512.496 568.065C506.873 567.937 501.25 567.937 495.627 568.065C493.274 568.065 489.481 571.386 489.089 573.557C488.697 575.857 490.92 579.817 493.274 580.711Z" fill="black"/>
</svg>
